<?xml version="1.0" encoding="UTF-8"?>
<svg id="Layer_2" xmlns="http://www.w3.org/2000/svg" viewBox="0 0 1145.23 234.91">
  <defs>
    <style>
      .cls-1 {
        fill: #191f5e;
      }
    </style>
  </defs>
  <g id="Layer_9">
    <g>
      <g>
        <path class="cls-1" d="M551.96,78.28v79.12h-18.4v-32.62h-47.83v32.62h-18.4v-79.12h18.4v30.86h47.83v-30.86h18.4Z"/>
        <path class="cls-1" d="M658.48,78.28h21.6l-39.34,46.28v32.84h-18.4v-32.84l-39.45-46.28h22.15l26.78,31.3,26.67-31.3Z"/>
        <path class="cls-1" d="M711.01,78.28h18.4v63.36h53.45v15.76h-71.85v-79.12Z"/>
        <path class="cls-1" d="M874.05,78.28l39.34,79.12h-19.95l-8.38-16.97h-43.42l-8.38,16.97h-19.62l39.56-79.12h20.83ZM849.14,125.22h28.54l-14.22-28.87-14.33,28.87Z"/>
        <path class="cls-1" d="M1027.72,157.4h-16.2l-49.37-55.65v55.65h-17.85v-79.12h18.62l46.95,53.01v-53.01h17.85v79.12Z"/>
        <path class="cls-1" d="M1058.5,78.28h40.99c28.1,0,45.73,15.43,45.73,39.56s-17.63,39.56-45.73,39.56h-40.99v-79.12ZM1099.5,141.86c17.19,0,27.22-9.48,27.22-24.02s-10.03-24.02-27.33-24.02h-22.81v48.05h22.92Z"/>
      </g>
      <g>
        <polygon class="cls-1" points="212.07 0 144.92 117.41 222.7 117.41 289.85 0 212.07 0"/>
        <polygon class="cls-1" points="67.15 117.41 0 234.82 77.77 234.82 144.92 117.41 67.15 117.41"/>
        <polygon class="cls-1" points="222.77 117.5 155.62 234.91 233.39 234.91 300.54 117.5 222.77 117.5"/>
        <polygon class="cls-1" points="367.69 .08 300.54 117.5 378.31 117.5 445.46 .08 367.69 .08"/>
      </g>
    </g>
  </g>
</svg>