<?xml version="1.0" encoding="UTF-8" standalone="no"?>
<svg
   width="255"
   height="300"
   viewBox="0 0 255 300"
   fill="none"
   version="1.1"
   id="svg60"
   sodipodi:docname="document_viewer__done.svg"
   inkscape:version="1.4 (86a8ad7, 2024-10-11)"
   xmlns:inkscape="http://www.inkscape.org/namespaces/inkscape"
   xmlns:sodipodi="http://sodipodi.sourceforge.net/DTD/sodipodi-0.dtd"
   xmlns="http://www.w3.org/2000/svg"
   xmlns:svg="http://www.w3.org/2000/svg">
  <defs
     id="defs60" />
  <sodipodi:namedview
     id="namedview60"
     pagecolor="#ffffff"
     bordercolor="#000000"
     borderopacity="0.25"
     inkscape:showpageshadow="2"
     inkscape:pageopacity="0.0"
     inkscape:pagecheckerboard="0"
     inkscape:deskcolor="#d1d1d1"
     inkscape:zoom="1.3078817"
     inkscape:cx="-14.527308"
     inkscape:cy="195.35406"
     inkscape:window-width="1920"
     inkscape:window-height="1121"
     inkscape:window-x="399"
     inkscape:window-y="1791"
     inkscape:window-maximized="1"
     inkscape:current-layer="svg60" />
  <path
     d="m 209.29106,31.408815 h -38.138 c -1.117,-7.68 0.755,-23.0399995 17.183,-23.0399995 16.429,0 20.815,15.3599995 20.955,23.0399995 z"
     fill="#e5e7eb"
     id="path3" />
  <path
     d="m 177.89106,31.136815 h -21.85 c -0.64,-4.667 0.432,-14 9.845,-14 9.412,0 11.925,9.333 12.005,14 z"
     fill="#e5e7eb"
     id="path4" />
  <path
     d="m 89.291058,181.40881 h -38.138 c -1.117,-7.68 0.755,-23.04 17.183,-23.04 16.429,0 20.815,15.36 20.955,23.04 z"
     fill="#e5e7eb"
     id="path5" />
  <path
     d="m 57.891058,181.13681 h -21.85 c -0.64,-4.667 0.432,-14 9.845,-14 9.412,0 11.925,9.333 12.005,14 z"
     fill="#e5e7eb"
     id="path6" />
  <path
     d="m 213.09206,163.56981 h -38.138 c -1.117,-7.68 0.754,-23.04 17.183,-23.04 16.428,0 20.815,15.36 20.955,23.04 z"
     fill="#e5e7eb"
     id="path7" />
  <path
     d="m 33.393058,9.8208155 c 2.699,0 4.887,-2.187 4.887,-4.8860004 0,-2.698 -2.188,-4.88600005 -4.887,-4.88600005 -2.699,0 -4.887,2.18800005 -4.887,4.88600005 0,2.6990004 2.188,4.8860004 4.887,4.8860004 z"
     fill="#87b9ec"
     id="path8" />
  <path
     d="m 116.56706,227.22481 c 2.699,0 4.887,-2.188 4.887,-4.886 0,-2.699 -2.188,-4.887 -4.887,-4.887 -2.699,0 -4.887,2.188 -4.887,4.887 0,2.698 2.188,4.886 4.887,4.886 z"
     fill="#87b9ec"
     id="path9" />
  <path
     d="m 139.62506,227.22481 c 2.699,0 4.887,-2.188 4.887,-4.886 0,-2.699 -2.188,-4.887 -4.887,-4.887 -2.699,0 -4.887,2.188 -4.887,4.887 0,2.698 2.188,4.886 4.887,4.886 z"
     fill="#87b9ec"
     id="path10" />
  <path
     d="m 162.68206,227.22481 c 2.699,0 4.887,-2.188 4.887,-4.886 0,-2.699 -2.188,-4.887 -4.887,-4.887 -2.699,0 -4.887,2.188 -4.887,4.887 0,2.698 2.188,4.886 4.887,4.886 z"
     fill="#87b9ec"
     id="path11" />
  <path
     d="m 249.15006,97.836815 c 2.699,0 4.887,-2.188 4.887,-4.886 0,-2.699 -2.188,-4.886 -4.887,-4.886 -2.699,0 -4.887,2.187 -4.887,4.886 0,2.698 2.188,4.886 4.887,4.886 z"
     fill="#87b9ec"
     id="path12" />
  <path
     d="m 11.772058,154.33481 c 5.539,0 10.029,-4.49 10.029,-10.028 0,-5.538 -4.49,-10.027 -10.029,-10.027 -5.539001,0 -10.029001,4.489 -10.029001,10.027 0,5.538 4.49,10.028 10.029001,10.028 z"
     stroke="#87b9ec"
     stroke-width="2"
     stroke-miterlimit="10"
     id="path13" />
  <path
     d="m 223.41006,87.943815 c 5.539,0 10.03,-4.49 10.03,-10.028 0,-5.538 -4.491,-10.027 -10.03,-10.027 -5.539,0 -10.029,4.489 -10.029,10.027 0,5.538 4.49,10.028 10.029,10.028 z"
     stroke="#87b9ec"
     stroke-width="2"
     stroke-miterlimit="10"
     id="path14" />
  <path
     d="m 26.805058,123.05181 c 2.699,0 4.887,-2.188 4.887,-4.886 0,-2.699 -2.188,-4.886 -4.887,-4.886 -2.699,0 -4.887,2.187 -4.887,4.886 0,2.698 2.188,4.886 4.887,4.886 z"
     fill="#87b9ec"
     id="path15" />
  <path
     d="m 127.89106,160.41481 c 25.405,0 46,-20.75 46,-46.346 0,-25.595995 -20.595,-46.345995 -46,-46.345995 -25.405,0 -46.000002,20.75 -46.000002,46.345995 0,25.596 20.595002,46.346 46.000002,46.346 z"
     fill="#cef4ce"
     id="path16" />
  <path
     d="m 127.89106,160.41481 c 25.405,0 46,-20.75 46,-46.346 0,-25.595995 -20.595,-46.345995 -46,-46.345995 -25.405,0 -46.000002,20.75 -46.000002,46.345995 0,25.596 20.595002,46.346 46.000002,46.346 z"
     stroke="#4b5563"
     stroke-width="3"
     stroke-linejoin="round"
     id="path17" />
  <path
     d="m 109.56006,116.11581 11.294,11.096 26.751,-26.286"
     stroke="#6b7280"
     stroke-width="12"
     stroke-linecap="round"
     stroke-linejoin="round"
     id="path18" />
  <path
     d="m 41.821058,256.64781 v 41.285 c 8.948,0.171 27.718,0.502 31.215,0.461 3.497,-0.041 4.885,-3.637 5.143,-5.43 v -36.93 c 0,-2.418 1.508,-4.183 2.262,-4.764 -9.839,-0.034 -30.361,-0.082 -33.735,0 -3.373,0.082 -4.662,3.62 -4.885,5.378 z"
     fill="#f9fafb"
     id="path19" />
  <path
     d="m 41.544058,257.01781 c 0,-3.2 2.598,-5.793 5.804,-5.793 h 34.737 c 3.206,0 5.804,2.593 5.804,5.793 h -9.692"
     stroke="#6b7280"
     stroke-width="3"
     stroke-linejoin="round"
     id="path20" />
  <path
     d="m 37.672058,298.39681 c -4.709,0 -5.817,-3.862 -5.782,-5.793 h 34.902 c 0,4.306 2.795,5.656 3.994,5.793 z"
     fill="#e5e7eb"
     id="path21" />
  <path
     d="m 72.409058,298.39681 c -6.205,0 -5.602,-5.782 -5.602,-5.782 h -34.918 c 0,3.194 2.597,5.782 5.801,5.782 z m 0,0 c 3.204,0 5.801,-2.588 5.801,-5.782 v -35.608 c 0,0 -0.253,-5.782 3.886,-5.782"
     stroke="#6b7280"
     stroke-width="3"
     stroke-linejoin="round"
     id="path22" />
  <path
     d="m 41.544058,257.01781 v 35.586"
     stroke="#6b7280"
     stroke-width="3"
     stroke-linejoin="round"
     id="path23" />
  <path
     d="m 56.630058,257.59381 h 15.199"
     stroke="#6b7280"
     stroke-width="3"
     stroke-miterlimit="10"
     stroke-linecap="round"
     id="path24" />
  <path
     d="m 45.736058,257.59381 h 6.524"
     stroke="#6b7280"
     stroke-width="3"
     stroke-miterlimit="10"
     stroke-linecap="round"
     id="path25" />
  <path
     d="m 66.889058,268.94681 h 4.939"
     stroke="#6b7280"
     stroke-width="3"
     stroke-miterlimit="10"
     stroke-linecap="round"
     id="path26" />
  <path
     d="m 45.736058,268.94681 h 16.793"
     stroke="#6b7280"
     stroke-width="3"
     stroke-miterlimit="10"
     stroke-linecap="round"
     id="path27" />
  <path
     d="m 45.736058,263.67481 h 21.654"
     stroke="#6b7280"
     stroke-width="3"
     stroke-miterlimit="10"
     stroke-linecap="round"
     id="path28" />
  <path
     d="m 45.736058,275.43281 h 21.654"
     stroke="#6b7280"
     stroke-width="3"
     stroke-miterlimit="10"
     stroke-linecap="round"
     id="path29" />
  <path
     d="m 45.736058,281.46981 h 13.048"
     stroke="#6b7280"
     stroke-width="3"
     stroke-miterlimit="10"
     stroke-linecap="round"
     id="path30" />
  <path
     d="m 66.328058,287.50681 h 4.583"
     stroke="#6b7280"
     stroke-width="3"
     stroke-miterlimit="10"
     stroke-linecap="round"
     id="path31" />
  <path
     d="m 45.736058,287.50681 h 15.895"
     stroke="#6b7280"
     stroke-width="3"
     stroke-miterlimit="10"
     stroke-linecap="round"
     id="path32" />
  <path
     d="m 109.82106,256.64781 v 41.285 c 8.948,0.171 27.718,0.502 31.215,0.461 3.497,-0.041 4.885,-3.637 5.143,-5.43 v -36.93 c 0,-2.418 1.508,-4.183 2.262,-4.764 -9.839,-0.034 -30.361,-0.082 -33.735,0 -3.373,0.082 -4.662,3.62 -4.885,5.378 z"
     fill="#f9fafb"
     id="path33" />
  <path
     d="m 109.54406,257.01781 c 0,-3.2 2.598,-5.793 5.804,-5.793 h 34.737 c 3.206,0 5.804,2.593 5.804,5.793 h -9.692"
     stroke="#6b7280"
     stroke-width="3"
     stroke-linejoin="round"
     id="path34" />
  <path
     d="m 105.67206,298.39681 c -4.709,0 -5.817,-3.862 -5.782,-5.793 h 34.902 c 0,4.306 2.795,5.656 3.994,5.793 z"
     fill="#e5e7eb"
     id="path35" />
  <path
     d="m 140.40906,298.39681 c -6.205,0 -5.602,-5.782 -5.602,-5.782 h -34.918 c 0,3.194 2.597,5.782 5.801,5.782 z m 0,0 c 3.204,0 5.801,-2.588 5.801,-5.782 v -35.608 c 0,0 -0.253,-5.782 3.886,-5.782"
     stroke="#6b7280"
     stroke-width="3"
     stroke-linejoin="round"
     id="path36" />
  <path
     d="m 109.54406,257.01781 v 35.586"
     stroke="#6b7280"
     stroke-width="3"
     stroke-linejoin="round"
     id="path37" />
  <path
     d="m 124.63006,257.59381 h 15.199"
     stroke="#6b7280"
     stroke-width="3"
     stroke-miterlimit="10"
     stroke-linecap="round"
     id="path38" />
  <path
     d="m 113.73606,257.59381 h 6.524"
     stroke="#6b7280"
     stroke-width="3"
     stroke-miterlimit="10"
     stroke-linecap="round"
     id="path39" />
  <path
     d="m 134.88906,268.94681 h 4.939"
     stroke="#6b7280"
     stroke-width="3"
     stroke-miterlimit="10"
     stroke-linecap="round"
     id="path40" />
  <path
     d="m 113.73606,268.94681 h 16.793"
     stroke="#6b7280"
     stroke-width="3"
     stroke-miterlimit="10"
     stroke-linecap="round"
     id="path41" />
  <path
     d="m 113.73606,263.67481 h 21.654"
     stroke="#6b7280"
     stroke-width="3"
     stroke-miterlimit="10"
     stroke-linecap="round"
     id="path42" />
  <path
     d="m 113.73606,275.43281 h 21.654"
     stroke="#6b7280"
     stroke-width="3"
     stroke-miterlimit="10"
     stroke-linecap="round"
     id="path43" />
  <path
     d="m 113.73606,281.46981 h 13.048"
     stroke="#6b7280"
     stroke-width="3"
     stroke-miterlimit="10"
     stroke-linecap="round"
     id="path44" />
  <path
     d="m 134.32806,287.50681 h 4.583"
     stroke="#6b7280"
     stroke-width="3"
     stroke-miterlimit="10"
     stroke-linecap="round"
     id="path45" />
  <path
     d="m 113.73606,287.50681 h 15.895"
     stroke="#6b7280"
     stroke-width="3"
     stroke-miterlimit="10"
     stroke-linecap="round"
     id="path46" />
  <path
     d="m 177.82106,256.64781 v 41.283 c 8.947,0.171 27.717,0.502 31.214,0.461 3.497,-0.041 4.885,-3.636 5.143,-5.429 v -36.929 c 0,-2.418 1.508,-4.183 2.262,-4.764 -9.839,-0.034 -30.361,-0.082 -33.734,0 -3.373,0.082 -4.662,3.62 -4.885,5.378 z"
     fill="#f9fafb"
     id="path47" />
  <path
     d="m 177.54706,257.01781 c 0,-3.2 2.598,-5.793 5.804,-5.793 h 34.736 c 3.206,0 5.804,2.593 5.804,5.793 h -9.693"
     stroke="#6b7280"
     stroke-width="3"
     stroke-linejoin="round"
     id="path48" />
  <path
     d="m 173.67206,298.39681 c -4.709,0 -5.817,-3.862 -5.782,-5.793 h 34.901 c 0,4.306 2.795,5.656 3.993,5.793 z"
     fill="#e5e7eb"
     id="path49" />
  <path
     d="m 208.40806,298.39581 c -6.205,0 -5.602,-5.782 -5.602,-5.782 h -34.917 c 0,3.194 2.597,5.782 5.8,5.782 z m 0,0 c 3.204,0 5.8,-2.588 5.8,-5.782 v -35.607 c 0,0 -0.253,-5.782 3.886,-5.782"
     stroke="#6b7280"
     stroke-width="3"
     stroke-linejoin="round"
     id="path50" />
  <path
     d="m 177.54706,257.01781 v 35.585"
     stroke="#6b7280"
     stroke-width="3"
     stroke-linejoin="round"
     id="path51" />
  <path
     d="m 192.63006,257.59381 h 15.198"
     stroke="#6b7280"
     stroke-width="3"
     stroke-miterlimit="10"
     stroke-linecap="round"
     id="path52" />
  <path
     d="m 181.73606,257.59381 h 6.524"
     stroke="#6b7280"
     stroke-width="3"
     stroke-miterlimit="10"
     stroke-linecap="round"
     id="path53" />
  <path
     d="m 202.88806,268.94581 h 4.939"
     stroke="#6b7280"
     stroke-width="3"
     stroke-miterlimit="10"
     stroke-linecap="round"
     id="path54" />
  <path
     d="m 181.73606,268.94581 h 16.792"
     stroke="#6b7280"
     stroke-width="3"
     stroke-miterlimit="10"
     stroke-linecap="round"
     id="path55" />
  <path
     d="m 181.73606,263.67481 h 21.653"
     stroke="#6b7280"
     stroke-width="3"
     stroke-miterlimit="10"
     stroke-linecap="round"
     id="path56" />
  <path
     d="m 181.73606,275.43181 h 21.653"
     stroke="#6b7280"
     stroke-width="3"
     stroke-miterlimit="10"
     stroke-linecap="round"
     id="path57" />
  <path
     d="m 181.73606,281.46881 h 13.047"
     stroke="#6b7280"
     stroke-width="3"
     stroke-miterlimit="10"
     stroke-linecap="round"
     id="path58" />
  <path
     d="m 202.32706,287.50481 h 4.583"
     stroke="#6b7280"
     stroke-width="3"
     stroke-miterlimit="10"
     stroke-linecap="round"
     id="path59" />
  <path
     d="m 181.73606,287.50481 h 15.895"
     stroke="#6b7280"
     stroke-width="3"
     stroke-miterlimit="10"
     stroke-linecap="round"
     id="path60" />
</svg>
