<?xml version="1.0" encoding="UTF-8" standalone="no"?>
<svg
   width="260"
   height="230"
   viewBox="0 0 260 230"
   fill="none"
   version="1.1"
   id="svg32"
   sodipodi:docname="document_viewer__no_selected.svg"
   inkscape:version="1.4 (86a8ad7, 2024-10-11)"
   xmlns:inkscape="http://www.inkscape.org/namespaces/inkscape"
   xmlns:sodipodi="http://sodipodi.sourceforge.net/DTD/sodipodi-0.dtd"
   xmlns="http://www.w3.org/2000/svg"
   xmlns:svg="http://www.w3.org/2000/svg">
  <defs
     id="defs32" />
  <sodipodi:namedview
     id="namedview32"
     pagecolor="#ffffff"
     bordercolor="#000000"
     borderopacity="0.25"
     inkscape:showpageshadow="2"
     inkscape:pageopacity="0.0"
     inkscape:pagecheckerboard="0"
     inkscape:deskcolor="#d1d1d1"
     inkscape:zoom="1.8496241"
     inkscape:cx="274.65041"
     inkscape:cy="31.087398"
     inkscape:window-width="1920"
     inkscape:window-height="1121"
     inkscape:window-x="399"
     inkscape:window-y="1791"
     inkscape:window-maximized="1"
     inkscape:current-layer="svg32" />
  <path
     d="m 236.73423,32.866747 h -38.138 c -1.117,-7.68 0.755,-23.0400009 17.183,-23.0400009 16.429,0 20.815,15.3600009 20.955,23.0400009 z"
     fill="#e5e7eb"
     id="path2" />
  <path
     d="m 37.851227,11.278746 c 2.699,0 4.887,-2.1869999 4.887,-4.8859959 0,-2.6980004 -2.188,-4.8860004 -4.887,-4.8860004 -2.699,0 -4.887,2.188 -4.887,4.8860004 0,2.698996 2.188,4.8859959 4.887,4.8859959 z"
     fill="#87b9ec"
     id="path3" />
  <path
     d="m 121.02423,228.68275 c 2.698,0 4.886,-2.188 4.886,-4.886 0,-2.699 -2.188,-4.887 -4.886,-4.887 -2.699,0 -4.887,2.188 -4.887,4.887 0,2.698 2.188,4.886 4.887,4.886 z"
     fill="#87b9ec"
     id="path4" />
  <path
     d="m 144.08123,228.68275 c 2.699,0 4.887,-2.188 4.887,-4.886 0,-2.699 -2.188,-4.887 -4.887,-4.887 -2.699,0 -4.887,2.188 -4.887,4.887 0,2.698 2.188,4.886 4.887,4.886 z"
     fill="#87b9ec"
     id="path5" />
  <path
     d="m 167.14023,228.68275 c 2.699,0 4.887,-2.188 4.887,-4.886 0,-2.699 -2.188,-4.887 -4.887,-4.887 -2.699,0 -4.887,2.188 -4.887,4.887 0,2.698 2.188,4.886 4.887,4.886 z"
     fill="#87b9ec"
     id="path6" />
  <path
     d="m 253.60723,99.294745 c 2.699,0 4.886,-2.188 4.886,-4.885998 0,-2.699 -2.187,-4.886 -4.886,-4.886 -2.699,0 -4.887,2.187 -4.887,4.886 0,2.697998 2.188,4.885998 4.887,4.885998 z"
     fill="#87b9ec"
     id="path7" />
  <path
     d="m 16.229227,155.79175 c 5.539,0 10.029,-4.489 10.029,-10.027 0,-5.538 -4.49,-10.027 -10.029,-10.027 -5.539,0 -10.0289998,4.489 -10.0289998,10.027 0,5.538 4.4899998,10.027 10.0289998,10.027 z"
     stroke="#87b9ec"
     stroke-width="2"
     stroke-miterlimit="10"
     id="path8" />
  <path
     d="m 227.86823,89.401747 c 5.539,0 10.029,-4.49 10.029,-10.028 0,-5.538 -4.49,-10.027 -10.029,-10.027 -5.539,0 -10.029,4.489 -10.029,10.027 0,5.538 4.49,10.028 10.029,10.028 z"
     stroke="#87b9ec"
     stroke-width="2"
     stroke-miterlimit="10"
     id="path9" />
  <path
     d="m 31.262227,124.50975 c 2.699,0 4.887,-2.188 4.887,-4.886 0,-2.699 -2.188,-4.886 -4.887,-4.886 -2.699,0 -4.887,2.187 -4.887,4.886 0,2.698 2.188,4.886 4.887,4.886 z"
     fill="#87b9ec"
     id="path10" />
  <path
     d="M 52.727229,31.770747 V 197.70475 c 35.823,0.687 110.967001,2.018 124.966001,1.853 14,-0.164 19.558,-14.617 20.588,-21.822 V 29.299747 c 0,-9.717 6.039,-16.813 9.058,-19.146001 -39.391,-0.137 -121.548001,-0.3299999 -135.054001,0 -13.505,0.329 -18.665,14.548001 -19.558,21.617001 z"
     fill="#f9fafb"
     id="path11" />
  <path
     d="m 51.276229,33.125747 c 0,-12.869 10.429,-23.2990009 23.297,-23.2990009 H 213.99723 c 12.868,0 23.296,10.4300009 23.296,23.2990009 h -38.904"
     stroke="#6b7280"
     stroke-width="3"
     stroke-linejoin="round"
     id="path12" />
  <path
     d="m 35.904227,199.90575 c -18.867,0 -23.306,-15.36 -23.167,-23.04 H 152.57323 c 0,17.128 11.201,22.497 16.001,23.04 z"
     fill="#e5e7eb"
     id="path13" />
  <path
     d="m 175.09423,199.91375 c -24.923,0 -22.501,-23.299 -22.501,-23.299 H 12.355227 c 0,12.87 10.429,23.299 23.297,23.299 z m 0,0 c 12.867,0 23.296,-10.429 23.296,-23.299 V 33.125747 c 0,0 -1.016,-23.2990009 15.608,-23.2990009"
     stroke="#6b7280"
     stroke-width="3"
     stroke-linejoin="round"
     id="path14" />
  <path
     d="M 51.276229,33.366747 V 176.85575"
     stroke="#6b7280"
     stroke-width="3"
     stroke-linejoin="round"
     id="path15" />
  <path
     d="m 31.270227,79.652747 c 15.892,0 28.775002,-12.885 28.775002,-28.779 0,-15.894 -12.883002,-28.779 -28.775002,-28.779 -15.893,0 -28.7759998,12.885 -28.7759998,28.779 0,15.894 12.8829998,28.779 28.7759998,28.779 z"
     fill="#cef4ce"
     id="path16" />
  <path
     d="m 31.270227,79.652747 c 15.892,0 28.775002,-12.885 28.775002,-28.779 0,-15.894 -12.883002,-28.779 -28.775002,-28.779 -15.893,0 -28.7759998,12.885 -28.7759998,28.779 0,15.894 12.8829998,28.779 28.7759998,28.779 z"
     stroke="#4b5563"
     stroke-width="3"
     stroke-linejoin="round"
     id="path17" />
  <path
     d="m 214.02923,208.41975 c 24.503,0 44.366,-19.865 44.366,-44.37 0,-24.506 -19.863,-44.371 -44.366,-44.371 -24.502,0 -44.365,19.865 -44.365,44.371 0,24.505 19.863,44.37 44.365,44.37 z"
     fill="#fdc5bf"
     stroke="#4b5563"
     stroke-width="4"
     stroke-linejoin="round"
     id="path18" />
  <path
     d="m 19.774227,52.068747 7.015,7.015 16.615,-16.617"
     stroke="#6b7280"
     stroke-width="12"
     stroke-linecap="round"
     stroke-linejoin="round"
     id="path19" />
  <path
     d="m 202.17423,152.54675 23.42,23.423"
     stroke="#6b7280"
     stroke-width="12"
     stroke-linecap="round"
     stroke-linejoin="round"
     id="path20" />
  <path
     d="m 202.17423,152.54675 23.42,23.423"
     stroke="#6b7280"
     stroke-width="12"
     stroke-linecap="round"
     stroke-linejoin="round"
     id="path21" />
  <path
     d="m 225.59423,152.54675 -23.42,23.423"
     stroke="#6b7280"
     stroke-width="12"
     stroke-linecap="round"
     stroke-linejoin="round"
     id="path22" />
  <path
     d="m 225.59423,152.54675 -23.42,23.423"
     stroke="#6b7280"
     stroke-width="12"
     stroke-linecap="round"
     stroke-linejoin="round"
     id="path23" />
  <path
     d="m 113.17723,42.682747 h 55.094"
     stroke="#6b7280"
     stroke-width="3"
     stroke-miterlimit="10"
     stroke-linecap="round"
     id="path24" />
  <path
     d="m 73.689229,42.682747 h 23.65"
     stroke="#6b7280"
     stroke-width="3"
     stroke-miterlimit="10"
     stroke-linecap="round"
     id="path25" />
  <path
     d="m 150.36623,83.835747 h 17.905"
     stroke="#6b7280"
     stroke-width="3"
     stroke-miterlimit="10"
     stroke-linecap="round"
     id="path26" />
  <path
     d="M 73.689229,83.835747 H 134.56423"
     stroke="#6b7280"
     stroke-width="3"
     stroke-miterlimit="10"
     stroke-linecap="round"
     id="path27" />
  <path
     d="M 73.689229,64.726747 H 152.18623"
     stroke="#6b7280"
     stroke-width="3"
     stroke-miterlimit="10"
     stroke-linecap="round"
     id="path28" />
  <path
     d="M 73.689229,107.34775 H 152.18623"
     stroke="#6b7280"
     stroke-width="3"
     stroke-miterlimit="10"
     stroke-linecap="round"
     id="path29" />
  <path
     d="M 73.689229,129.23275 H 120.98923"
     stroke="#6b7280"
     stroke-width="3"
     stroke-miterlimit="10"
     stroke-linecap="round"
     id="path30" />
  <path
     d="m 148.33423,151.11675 h 16.615"
     stroke="#6b7280"
     stroke-width="3"
     stroke-miterlimit="10"
     stroke-linecap="round"
     id="path31" />
  <path
     d="M 73.689229,151.11675 H 131.31123"
     stroke="#6b7280"
     stroke-width="3"
     stroke-miterlimit="10"
     stroke-linecap="round"
     id="path32" />
</svg>
