<svg width="16" height="16" viewBox="0 0 16 16" fill="none" xmlns="http://www.w3.org/2000/svg">
<path fill-rule="evenodd" clip-rule="evenodd" d="M6.96051 1H0V12.513C0.0263077 12.8666 0.115478 13.2111 0.262381 13.5265C0.409285 13.8419 0.611027 14.1221 0.856047 14.351C1.34565 14.8112 1.97821 15.0418 2.61912 14.9938H13.3809C14.0247 15.04 14.6598 14.8098 15.1541 14.351C15.6426 13.8844 15.9462 13.2245 16 12.513V3.74013H7.94905L6.96051 1ZM1.20254 5.51048H14.7873V12.5694C14.7446 12.9388 14.5726 13.2748 14.3083 13.5053C14.1793 13.621 14.0311 13.7074 13.872 13.7596C13.7128 13.8118 13.546 13.8289 13.3809 13.8098H2.61912C2.45238 13.8311 2.28346 13.8151 2.12241 13.7628C1.96135 13.7105 1.81142 13.6229 1.68152 13.5053C1.54939 13.3925 1.43896 13.2515 1.35671 13.0908C1.27446 12.9301 1.22204 12.7528 1.20254 12.5694V5.51048Z" fill="#0E73D8"/>
</svg>
