<svg width="16" height="16" viewBox="0 0 16 16" fill="none" xmlns="http://www.w3.org/2000/svg">
<path fill-rule="evenodd" clip-rule="evenodd" d="M15.083 0.914807C13.8626 -0.304936 11.8807 -0.304936 10.6603 0.914807L1.47075 10.1098L0.312925 14.7386L0 16L1.26213 15.6872L5.89342 14.5301L15.3125 5.07444C16.3034 3.84427 16.2199 2.06157 15.083 0.914807ZM5.09025 13.1122L2.14875 13.8524L2.88934 10.9021L10.1909 3.59407L12.4023 5.8042L5.09025 13.1122ZM13.9878 4.23L13.7478 4.45936L13.5184 4.69914L11.307 2.489L11.7764 2.01987C12.3918 1.40479 13.3723 1.40479 13.9878 2.01987C14.6032 2.63496 14.6032 3.61492 13.9878 4.23Z" fill="#111827"/>
</svg>
